<mxfile host="Electron" agent="Mozilla/5.0 (Windows NT 10.0; Win64; x64) AppleWebKit/537.36 (KHTML, like Gecko) draw.io/24.7.17 Chrome/128.0.6613.36 Electron/32.0.1 Safari/537.36" version="24.7.17">
  <diagram name="Page-1" id="yyaRhcON31kIHrcWDbR-">
    <mxGraphModel dx="1434" dy="844" grid="1" gridSize="10" guides="1" tooltips="1" connect="1" arrows="1" fold="1" page="1" pageScale="1" pageWidth="850" pageHeight="1100" math="0" shadow="0">
      <root>
        <mxCell id="0" />
        <mxCell id="1" parent="0" />
        <mxCell id="x27Txz3bOXTSNgH1oQVg-8" style="edgeStyle=orthogonalEdgeStyle;rounded=0;orthogonalLoop=1;jettySize=auto;html=1;exitX=0.5;exitY=1;exitDx=0;exitDy=0;entryX=0.5;entryY=0;entryDx=0;entryDy=0;" parent="1" source="x27Txz3bOXTSNgH1oQVg-1" target="x27Txz3bOXTSNgH1oQVg-2" edge="1">
          <mxGeometry relative="1" as="geometry" />
        </mxCell>
        <mxCell id="x27Txz3bOXTSNgH1oQVg-1" value="Bắt đầu vẽ" style="rounded=1;whiteSpace=wrap;html=1;" parent="1" vertex="1">
          <mxGeometry x="365" y="30" width="120" height="60" as="geometry" />
        </mxCell>
        <mxCell id="x27Txz3bOXTSNgH1oQVg-9" style="edgeStyle=orthogonalEdgeStyle;rounded=0;orthogonalLoop=1;jettySize=auto;html=1;exitX=0.5;exitY=1;exitDx=0;exitDy=0;entryX=0.5;entryY=0;entryDx=0;entryDy=0;" parent="1" source="x27Txz3bOXTSNgH1oQVg-2" target="x27Txz3bOXTSNgH1oQVg-4" edge="1">
          <mxGeometry relative="1" as="geometry" />
        </mxCell>
        <mxCell id="x27Txz3bOXTSNgH1oQVg-2" value="Tạo 1 thực thể CanvasContainer là biến cha, và 1 thực thể Canvas là biến con" style="rounded=0;whiteSpace=wrap;html=1;" parent="1" vertex="1">
          <mxGeometry x="335" y="128" width="180" height="90" as="geometry" />
        </mxCell>
        <mxCell id="x27Txz3bOXTSNgH1oQVg-10" style="edgeStyle=orthogonalEdgeStyle;rounded=0;orthogonalLoop=1;jettySize=auto;html=1;exitX=0.5;exitY=1;exitDx=0;exitDy=0;entryX=0.5;entryY=0;entryDx=0;entryDy=0;" parent="1" source="x27Txz3bOXTSNgH1oQVg-4" target="x27Txz3bOXTSNgH1oQVg-6" edge="1">
          <mxGeometry relative="1" as="geometry" />
        </mxCell>
        <mxCell id="x27Txz3bOXTSNgH1oQVg-4" value="Sử dụng thư viện p5.js" style="rounded=0;whiteSpace=wrap;html=1;" parent="1" vertex="1">
          <mxGeometry x="365" y="250" width="120" height="60" as="geometry" />
        </mxCell>
        <mxCell id="x27Txz3bOXTSNgH1oQVg-17" style="edgeStyle=orthogonalEdgeStyle;rounded=0;orthogonalLoop=1;jettySize=auto;html=1;exitX=0.5;exitY=1;exitDx=0;exitDy=0;entryX=0.5;entryY=0;entryDx=0;entryDy=0;" parent="1" source="x27Txz3bOXTSNgH1oQVg-5" target="x27Txz3bOXTSNgH1oQVg-7" edge="1">
          <mxGeometry relative="1" as="geometry" />
        </mxCell>
        <mxCell id="x27Txz3bOXTSNgH1oQVg-5" value="Tính toạ độ đỉnh" style="shape=process;whiteSpace=wrap;html=1;backgroundOutline=1;" parent="1" vertex="1">
          <mxGeometry x="365" y="457" width="120" height="60" as="geometry" />
        </mxCell>
        <mxCell id="x27Txz3bOXTSNgH1oQVg-16" style="edgeStyle=orthogonalEdgeStyle;rounded=0;orthogonalLoop=1;jettySize=auto;html=1;exitX=0.5;exitY=1;exitDx=0;exitDy=0;entryX=0.5;entryY=0;entryDx=0;entryDy=0;" parent="1" source="x27Txz3bOXTSNgH1oQVg-6" target="x27Txz3bOXTSNgH1oQVg-5" edge="1">
          <mxGeometry relative="1" as="geometry">
            <mxPoint x="425" y="464" as="targetPoint" />
          </mxGeometry>
        </mxCell>
        <mxCell id="x27Txz3bOXTSNgH1oQVg-6" value="Xài các câu lệnh trong p5 để tạo ra trang trắng là con của Canvas để cho phép vẽ lên" style="rounded=0;whiteSpace=wrap;html=1;" parent="1" vertex="1">
          <mxGeometry x="345" y="344" width="160" height="80" as="geometry" />
        </mxCell>
        <mxCell id="FrsgoRkSf8pLMS0wWAca-1" style="edgeStyle=orthogonalEdgeStyle;rounded=0;orthogonalLoop=1;jettySize=auto;html=1;exitX=0.5;exitY=1;exitDx=0;exitDy=0;entryX=0.5;entryY=0;entryDx=0;entryDy=0;" edge="1" parent="1" source="x27Txz3bOXTSNgH1oQVg-7" target="x27Txz3bOXTSNgH1oQVg-18">
          <mxGeometry relative="1" as="geometry" />
        </mxCell>
        <mxCell id="x27Txz3bOXTSNgH1oQVg-7" value="Vẽ các cạnh và các đỉnh" style="rounded=0;whiteSpace=wrap;html=1;" parent="1" vertex="1">
          <mxGeometry x="365" y="557" width="120" height="60" as="geometry" />
        </mxCell>
        <mxCell id="x27Txz3bOXTSNgH1oQVg-18" value="Kết thúc" style="rounded=1;whiteSpace=wrap;html=1;" parent="1" vertex="1">
          <mxGeometry x="365" y="660" width="120" height="60" as="geometry" />
        </mxCell>
      </root>
    </mxGraphModel>
  </diagram>
</mxfile>
